<svg data-v-423bf9ae="" xmlns="http://www.w3.org/2000/svg" viewBox="0 0 306.66021801214515 60" class="font"><!----><!----><!----><g data-v-423bf9ae="" id="ebc019ef-de33-4458-be54-0dba223cd735" fill="black" transform="matrix(5.791505450303629,0,0,5.791505450303629,-2.6640900877415845,-14.65250933882762)"><path d="M0.69 12.77L0.69 12.77Q0.59 12.77 0.53 12.68L0.53 12.68L0.53 12.68Q0.46 12.60 0.46 12.49L0.46 12.49L0.46 12.49Q0.48 12.31 0.55 12.27L0.55 12.27L0.55 12.27Q0.62 12.24 0.80 12.24L0.80 12.24L0.80 12.24Q1.16 12.24 1.32 12.11L1.32 12.11L1.32 12.11Q1.47 11.98 1.49 11.82L1.49 11.82L1.49 11.82Q1.51 11.65 1.51 11.28L1.51 11.28L1.51 8.08L1.51 8.08Q1.51 7.71 1.49 7.55L1.49 7.55L1.49 7.55Q1.47 7.38 1.32 7.25L1.32 7.25L1.32 7.25Q1.16 7.13 0.80 7.13L0.80 7.13L0.80 7.13Q0.63 7.13 0.55 7.08L0.55 7.08L0.55 7.08Q0.46 7.03 0.46 6.85L0.46 6.85L0.46 6.85Q0.46 6.76 0.52 6.69L0.52 6.69L0.52 6.69Q0.57 6.61 0.69 6.59L0.69 6.59L0.69 6.59Q1.60 6.45 2.18 6.23L2.18 6.23L2.18 6.23Q2.42 6.16 2.51 6.15L2.51 6.15L2.55 6.15L2.55 6.15Q2.77 6.15 2.77 6.41L2.77 6.41L2.77 7.28L2.81 7.28L2.81 7.28Q3.30 6.79 3.81 6.50L3.81 6.50L3.81 6.50Q4.31 6.22 4.72 6.22L4.72 6.22L4.72 6.22Q5.18 6.22 5.45 6.56L5.45 6.56L5.45 6.56Q5.73 6.90 5.73 7.35L5.73 7.35L5.73 7.35Q5.73 7.74 5.49 8.05L5.49 8.05L5.49 8.05Q5.25 8.36 4.83 8.36L4.83 8.36L4.83 8.36Q4.63 8.36 4.49 8.27L4.49 8.27L4.49 8.27Q4.34 8.19 4.33 8.13L4.33 8.13L4.33 8.13Q4.34 8.11 4.47 7.96L4.47 7.96L4.47 7.96Q4.59 7.81 4.59 7.62L4.59 7.62L4.59 7.62Q4.59 7.36 4.46 7.21L4.46 7.21L4.46 7.21Q4.33 7.06 4.10 7.06L4.10 7.06L4.10 7.06Q3.86 7.06 3.50 7.29L3.50 7.29L3.50 7.29Q3.14 7.52 2.79 7.87L2.79 7.87L2.79 11.28L2.79 11.28Q2.79 11.65 2.81 11.82L2.81 11.82L2.81 11.82Q2.84 11.98 3.00 12.11L3.00 12.11L3.00 12.11Q3.15 12.24 3.51 12.24L3.51 12.24L3.60 12.24L3.60 12.24Q3.71 12.24 3.77 12.28L3.77 12.28L3.77 12.28Q3.82 12.32 3.84 12.49L3.84 12.49L3.84 12.49Q3.84 12.60 3.78 12.68L3.78 12.68L3.78 12.68Q3.72 12.77 3.61 12.77L3.61 12.77L3.61 12.77Q2.80 12.73 2.14 12.73L2.14 12.73L2.14 12.73Q1.51 12.73 0.69 12.77L0.69 12.77ZM9.80 12.89L9.80 12.89Q8.75 12.89 8.02 12.45L8.02 12.45L8.02 12.45Q7.28 12.00 6.90 11.23L6.90 11.23L6.90 11.23Q6.52 10.46 6.52 9.52L6.52 9.52L6.52 9.52Q6.52 8.69 6.91 7.93L6.91 7.93L6.91 7.93Q7.29 7.17 8.01 6.69L8.01 6.69L8.01 6.69Q8.72 6.22 9.65 6.22L9.65 6.22L9.65 6.22Q10.89 6.22 11.56 6.85L11.56 6.85L11.56 6.85Q12.24 7.49 12.33 8.57L12.33 8.57L12.33 8.57Q12.33 9.03 12.08 9.20L12.08 9.20L12.08 9.20Q11.83 9.37 11.35 9.37L11.35 9.37L7.95 9.37L7.95 9.37Q7.95 10.67 8.49 11.43L8.49 11.43L8.49 11.43Q9.03 12.19 10.16 12.19L10.16 12.19L10.16 12.19Q10.77 12.19 11.19 11.94L11.19 11.94L11.19 11.94Q11.61 11.68 11.98 11.06L11.98 11.06L11.98 11.06Q12.05 10.99 12.12 10.99L12.12 10.99L12.12 10.99Q12.22 10.99 12.29 11.05L12.29 11.05L12.29 11.05Q12.43 11.13 12.43 11.30L12.43 11.30L12.43 11.30Q12.43 11.38 12.40 11.42L12.40 11.42L12.40 11.42Q11.97 12.12 11.30 12.51L11.30 12.51L11.30 12.51Q10.64 12.89 9.80 12.89L9.80 12.89ZM7.95 8.83L10.23 8.83L10.23 8.83Q10.95 8.83 10.99 8.25L10.99 8.25L10.99 8.25Q10.99 7.60 10.64 7.15L10.64 7.15L10.64 7.15Q10.29 6.71 9.65 6.71L9.65 6.71L9.65 6.71Q8.93 6.71 8.47 7.27L8.47 7.27L8.47 7.27Q8.01 7.84 7.95 8.83L7.95 8.83ZM16.49 12.89L16.49 12.89Q15.71 12.89 15.04 12.47L15.04 12.47L15.04 12.47Q14.36 12.04 13.96 11.28L13.96 11.28L13.96 11.28Q13.55 10.51 13.55 9.55L13.55 9.55L13.55 9.55Q13.55 8.68 13.97 7.91L13.97 7.91L13.97 7.91Q14.39 7.14 15.13 6.68L15.13 6.68L15.13 6.68Q15.88 6.22 16.79 6.22L16.79 6.22L16.79 6.22Q17.22 6.22 17.65 6.32L17.65 6.32L17.65 6.32Q18.09 6.43 18.41 6.61L18.41 6.61L18.45 6.61L18.45 4.47L18.45 4.47Q18.45 4.10 18.43 3.93L18.43 3.93L18.43 3.93Q18.41 3.77 18.26 3.64L18.26 3.64L18.26 3.64Q18.10 3.51 17.74 3.51L17.74 3.51L17.74 3.51Q17.57 3.51 17.49 3.46L17.49 3.46L17.49 3.46Q17.40 3.42 17.40 3.23L17.40 3.23L17.40 3.23Q17.40 3.15 17.46 3.07L17.46 3.07L17.46 3.07Q17.51 3.00 17.63 2.98L17.63 2.98L17.63 2.98Q18.51 2.86 19.14 2.62L19.14 2.62L19.14 2.62Q19.33 2.55 19.46 2.53L19.46 2.53L19.50 2.53L19.50 2.53Q19.73 2.53 19.73 2.80L19.73 2.80L19.73 11.44L19.73 11.44Q19.73 12.26 20.82 12.26L20.82 12.26L20.82 12.26Q21.06 12.26 21.06 12.49L21.06 12.49L21.06 12.49Q21.06 12.68 20.82 12.73L20.82 12.73L18.59 12.88L18.59 12.88Q18.49 12.88 18.48 12.82L18.48 12.82L18.48 12.82Q18.47 12.75 18.47 12.60L18.47 12.60L18.47 12.04L18.42 12.04L18.42 12.04Q18.06 12.42 17.54 12.66L17.54 12.66L17.54 12.66Q17.01 12.89 16.49 12.89L16.49 12.89ZM16.97 12.19L16.97 12.19Q17.46 12.19 17.80 12.01L17.80 12.01L17.80 12.01Q18.14 11.82 18.45 11.49L18.45 11.49L18.45 7.80L18.45 7.80Q18.33 7.39 17.93 7.06L17.93 7.06L17.93 7.06Q17.53 6.72 16.93 6.72L16.93 6.72L16.93 6.72Q16.38 6.72 15.94 7.06L15.94 7.06L15.94 7.06Q15.50 7.41 15.25 8.06L15.25 8.06L15.25 8.06Q14.99 8.72 14.99 9.62L14.99 9.62L14.99 9.62Q14.99 10.70 15.51 11.45L15.51 11.45L15.51 11.45Q16.02 12.19 16.97 12.19L16.97 12.19ZM27.73 12.89L27.73 12.89Q26.95 12.89 26.28 12.47L26.28 12.47L26.28 12.47Q25.61 12.04 25.20 11.28L25.20 11.28L25.20 11.28Q24.79 10.51 24.79 9.55L24.79 9.55L24.79 9.55Q24.79 8.68 25.21 7.91L25.21 7.91L25.21 7.91Q25.63 7.14 26.38 6.68L26.38 6.68L26.38 6.68Q27.12 6.22 28.03 6.22L28.03 6.22L28.03 6.22Q28.46 6.22 28.90 6.32L28.90 6.32L28.90 6.32Q29.33 6.43 29.65 6.61L29.65 6.61L29.69 6.61L29.69 4.47L29.69 4.47Q29.69 4.10 29.67 3.93L29.67 3.93L29.67 3.93Q29.65 3.77 29.50 3.64L29.50 3.64L29.50 3.64Q29.34 3.51 28.98 3.51L28.98 3.51L28.98 3.51Q28.81 3.51 28.73 3.46L28.73 3.46L28.73 3.46Q28.64 3.42 28.64 3.23L28.64 3.23L28.64 3.23Q28.64 3.15 28.70 3.07L28.70 3.07L28.70 3.07Q28.76 3.00 28.87 2.98L28.87 2.98L28.87 2.98Q29.75 2.86 30.38 2.62L30.38 2.62L30.38 2.62Q30.58 2.55 30.70 2.53L30.70 2.53L30.74 2.53L30.74 2.53Q30.97 2.53 30.97 2.80L30.97 2.80L30.97 11.44L30.97 11.44Q30.97 12.26 32.06 12.26L32.06 12.26L32.06 12.26Q32.30 12.26 32.30 12.49L32.30 12.49L32.30 12.49Q32.30 12.68 32.06 12.73L32.06 12.73L29.83 12.88L29.83 12.88Q29.74 12.88 29.72 12.82L29.72 12.82L29.72 12.82Q29.71 12.75 29.71 12.60L29.71 12.60L29.71 12.04L29.67 12.04L29.67 12.04Q29.30 12.42 28.78 12.66L28.78 12.66L28.78 12.66Q28.25 12.89 27.73 12.89L27.73 12.89ZM28.21 12.19L28.21 12.19Q28.70 12.19 29.04 12.01L29.04 12.01L29.04 12.01Q29.39 11.82 29.69 11.49L29.69 11.49L29.69 7.80L29.69 7.80Q29.57 7.39 29.17 7.06L29.17 7.06L29.17 7.06Q28.77 6.72 28.17 6.72L28.17 6.72L28.17 6.72Q27.62 6.72 27.18 7.06L27.18 7.06L27.18 7.06Q26.74 7.41 26.49 8.06L26.49 8.06L26.49 8.06Q26.24 8.72 26.24 9.62L26.24 9.62L26.24 9.62Q26.24 10.70 26.75 11.45L26.75 11.45L26.75 11.45Q27.26 12.19 28.21 12.19L28.21 12.19ZM36.18 12.89L36.18 12.89Q35.22 12.89 34.48 12.44L34.48 12.44L34.48 12.44Q33.74 11.98 33.33 11.24L33.33 11.24L33.33 11.24Q32.91 10.49 32.91 9.65L32.91 9.65L32.91 9.65Q32.91 8.60 33.40 7.82L33.40 7.82L33.40 7.82Q33.89 7.04 34.65 6.63L34.65 6.63L34.65 6.63Q35.41 6.22 36.18 6.22L36.18 6.22L36.18 6.22Q37.13 6.22 37.87 6.67L37.87 6.67L37.87 6.67Q38.61 7.13 39.03 7.88L39.03 7.88L39.03 7.88Q39.44 8.62 39.44 9.46L39.44 9.46L39.44 9.46Q39.44 10.51 38.94 11.29L38.94 11.29L38.94 11.29Q38.44 12.07 37.69 12.48L37.69 12.48L37.69 12.48Q36.93 12.89 36.18 12.89L36.18 12.89ZM36.18 12.38L36.18 12.38Q37.13 12.38 37.57 11.56L37.57 11.56L37.57 11.56Q38.01 10.75 38.01 9.46L38.01 9.46L38.01 9.46Q38.01 8.26 37.56 7.50L37.56 7.50L37.56 7.50Q37.10 6.73 36.18 6.73L36.18 6.73L36.18 6.73Q35.21 6.73 34.78 7.53L34.78 7.53L34.78 7.53Q34.34 8.33 34.34 9.62L34.34 9.62L34.34 9.62Q34.34 10.82 34.79 11.60L34.79 11.60L34.79 11.60Q35.24 12.38 36.18 12.38L36.18 12.38ZM43.85 12.89L43.85 12.89Q42.90 12.89 42.15 12.44L42.15 12.44L42.15 12.44Q41.41 11.98 41.00 11.24L41.00 11.24L41.00 11.24Q40.59 10.49 40.59 9.65L40.59 9.65L40.59 9.65Q40.59 8.60 41.08 7.82L41.08 7.82L41.08 7.82Q41.57 7.04 42.32 6.63L42.32 6.63L42.32 6.63Q43.08 6.22 43.85 6.22L43.85 6.22L43.85 6.22Q44.80 6.22 45.54 6.67L45.54 6.67L45.54 6.67Q46.28 7.13 46.70 7.88L46.70 7.88L46.70 7.88Q47.11 8.62 47.11 9.46L47.11 9.46L47.11 9.46Q47.11 10.51 46.61 11.29L46.61 11.29L46.61 11.29Q46.12 12.07 45.36 12.48L45.36 12.48L45.36 12.48Q44.60 12.89 43.85 12.89L43.85 12.89ZM43.85 12.38L43.85 12.38Q44.80 12.38 45.24 11.56L45.24 11.56L45.24 11.56Q45.68 10.75 45.68 9.46L45.68 9.46L45.68 9.46Q45.68 8.26 45.23 7.50L45.23 7.50L45.23 7.50Q44.77 6.73 43.85 6.73L43.85 6.73L43.85 6.73Q42.88 6.73 42.45 7.53L42.45 7.53L42.45 7.53Q42.01 8.33 42.01 9.62L42.01 9.62L42.01 9.62Q42.01 10.82 42.46 11.60L42.46 11.60L42.46 11.60Q42.91 12.38 43.85 12.38L43.85 12.38ZM48.37 12.77L48.37 12.77Q48.27 12.77 48.21 12.68L48.21 12.68L48.21 12.68Q48.15 12.60 48.15 12.49L48.15 12.49L48.15 12.49Q48.16 12.31 48.23 12.27L48.23 12.27L48.23 12.27Q48.30 12.24 48.48 12.24L48.48 12.24L48.48 12.24Q48.85 12.24 49 12.11L49 12.11L49 12.11Q49.15 11.98 49.17 11.82L49.17 11.82L49.17 11.82Q49.20 11.65 49.20 11.28L49.20 11.28L49.20 8.08L49.20 8.08Q49.20 7.71 49.17 7.55L49.17 7.55L49.17 7.55Q49.15 7.38 49 7.25L49 7.25L49 7.25Q48.85 7.13 48.48 7.13L48.48 7.13L48.48 7.13Q48.31 7.13 48.23 7.08L48.23 7.08L48.23 7.08Q48.15 7.03 48.15 6.85L48.15 6.85L48.15 6.85Q48.15 6.76 48.20 6.69L48.20 6.69L48.20 6.69Q48.26 6.61 48.37 6.59L48.37 6.59L48.37 6.59Q49.28 6.45 49.87 6.23L49.87 6.23L49.87 6.23Q50.11 6.16 50.19 6.15L50.19 6.15L50.23 6.15L50.23 6.15Q50.46 6.15 50.46 6.41L50.46 6.41L50.46 7.28L50.50 7.28L50.50 7.28Q50.99 6.79 51.49 6.50L51.49 6.50L51.49 6.50Q52.00 6.22 52.40 6.22L52.40 6.22L52.40 6.22Q52.86 6.22 53.14 6.56L53.14 6.56L53.14 6.56Q53.41 6.90 53.41 7.35L53.41 7.35L53.41 7.35Q53.41 7.74 53.17 8.05L53.17 8.05L53.17 8.05Q52.93 8.36 52.51 8.36L52.51 8.36L52.51 8.36Q52.32 8.36 52.17 8.27L52.17 8.27L52.17 8.27Q52.02 8.19 52.01 8.13L52.01 8.13L52.01 8.13Q52.02 8.11 52.15 7.96L52.15 7.96L52.15 7.96Q52.28 7.81 52.28 7.62L52.28 7.62L52.28 7.62Q52.28 7.36 52.14 7.21L52.14 7.21L52.14 7.21Q52.01 7.06 51.79 7.06L51.79 7.06L51.79 7.06Q51.55 7.06 51.18 7.29L51.18 7.29L51.18 7.29Q50.82 7.52 50.47 7.87L50.47 7.87L50.47 11.28L50.47 11.28Q50.47 11.65 50.50 11.82L50.50 11.82L50.50 11.82Q50.53 11.98 50.68 12.11L50.68 12.11L50.68 12.11Q50.83 12.24 51.20 12.24L51.20 12.24L51.28 12.24L51.28 12.24Q51.39 12.24 51.45 12.28L51.45 12.28L51.45 12.28Q51.51 12.32 51.52 12.49L51.52 12.49L51.52 12.49Q51.52 12.60 51.46 12.68L51.46 12.68L51.46 12.68Q51.41 12.77 51.30 12.77L51.30 12.77L51.30 12.77Q50.48 12.73 49.83 12.73L49.83 12.73L49.83 12.73Q49.20 12.73 48.37 12.77L48.37 12.77Z"></path></g><!----><!----></svg>